# xmcd
# 
# Track frame offsets:
#     150
#     20640
#     37822
#     53790
#     72322
#     89587
#     104782
#     124612
#     141332
#     157732
#     177780
# 
# Disc length: 2611
# 
# Revision: 6
# Processed by: cddbd v1.5.2PL0 Copyright (c) Steve Scherf et al.
# Submitted via: fre:ac v1.0.31
# 
DISCID=930a310b
DTITLE=Buddy Jewell - Buddy Jewell
DYEAR=2003
DGENRE=Country
TTITLE0=I Wanna Thank Everyone
TTITLE1=Help Pour Out The Rain (Lacey's Song)
TTITLE2=Sweet Southern Comfort
TTITLE3=Today I Started Loving You Again (Duet with Miranda Lambert)
TTITLE4=Abilene On Her Mind
TTITLE5=One In A Row
TTITLE6=O'Reilly Luck
TTITLE7=Why We Said Goodbye
TTITLE8=One Step At A Time
TTITLE9=I Can Get By
TTITLE10=You Know How Women Are
EXTD=YEAR: 2003
EXTT0=
EXTT1=
EXTT2=
EXTT3=
EXTT4=
EXTT5=
EXTT6=
EXTT7=
EXTT8=
EXTT9=
EXTT10=
PLAYORDER=
